<svg width="34" height="34" viewBox="0 0 34 34" fill="none" xmlns="http://www.w3.org/2000/svg">
<path d="M16.9999 33.6663C14.8112 33.6663 12.644 33.2352 10.6219 32.3977C8.59977 31.5601 6.76245 30.3324 5.21481 28.7848C2.0892 25.6592 0.333252 21.42 0.333252 16.9997C0.333252 12.5794 2.0892 8.34017 5.21481 5.21456C8.34041 2.08896 12.5796 0.333008 16.9999 0.333008C26.1666 0.333008 33.6666 6.99967 33.6666 15.333C33.6666 17.9852 32.613 20.5287 30.7377 22.4041C28.8623 24.2794 26.3188 25.333 23.6666 25.333H20.6666C20.1666 25.333 19.8333 25.6663 19.8333 26.1663C19.8333 26.333 19.9999 26.4997 19.9999 26.6663C20.6666 27.4997 20.9999 28.4997 20.9999 29.4997C21.1666 31.833 19.3333 33.6663 16.9999 33.6663ZM16.9999 3.66634C13.4637 3.66634 10.0723 5.0711 7.57183 7.57158C5.07134 10.0721 3.66659 13.4635 3.66659 16.9997C3.66659 20.5359 5.07134 23.9273 7.57183 26.4278C10.0723 28.9283 13.4637 30.333 16.9999 30.333C17.4999 30.333 17.8333 29.9997 17.8333 29.4997C17.8333 29.1663 17.6666 28.9997 17.6666 28.833C16.9999 27.9997 16.6666 27.1663 16.6666 26.1663C16.6666 23.833 18.4999 21.9997 20.8333 21.9997H23.6666C25.4347 21.9997 27.1304 21.2973 28.3806 20.0471C29.6309 18.7968 30.3333 17.1011 30.3333 15.333C30.3333 8.83301 24.3333 3.66634 16.9999 3.66634ZM7.83325 13.6663C9.16659 13.6663 10.3333 14.833 10.3333 16.1663C10.3333 17.4997 9.16659 18.6663 7.83325 18.6663C6.49992 18.6663 5.33325 17.4997 5.33325 16.1663C5.33325 14.833 6.49992 13.6663 7.83325 13.6663ZM12.8333 6.99967C14.1666 6.99967 15.3333 8.16634 15.3333 9.49967C15.3333 10.833 14.1666 11.9997 12.8333 11.9997C11.4999 11.9997 10.3333 10.833 10.3333 9.49967C10.3333 8.16634 11.4999 6.99967 12.8333 6.99967ZM21.1666 6.99967C22.4999 6.99967 23.6666 8.16634 23.6666 9.49967C23.6666 10.833 22.4999 11.9997 21.1666 11.9997C19.8333 11.9997 18.6666 10.833 18.6666 9.49967C18.6666 8.16634 19.8333 6.99967 21.1666 6.99967ZM26.1666 13.6663C27.4999 13.6663 28.6666 14.833 28.6666 16.1663C28.6666 17.4997 27.4999 18.6663 26.1666 18.6663C24.8333 18.6663 23.6666 17.4997 23.6666 16.1663C23.6666 14.833 24.8333 13.6663 26.1666 13.6663Z" fill="black"/>
</svg>
