<svg width="8" height="28" viewBox="0 0 8 28" fill="none" xmlns="http://www.w3.org/2000/svg">
<path d="M4.00008 20.667C4.88414 20.667 5.73198 21.0182 6.3571 21.6433C6.98222 22.2684 7.33341 23.1163 7.33341 24.0003C7.33341 24.8844 6.98222 25.7322 6.3571 26.3573C5.73198 26.9825 4.88414 27.3337 4.00008 27.3337C3.11603 27.3337 2.26818 26.9825 1.64306 26.3573C1.01794 25.7322 0.666748 24.8844 0.666748 24.0003C0.666748 23.1163 1.01794 22.2684 1.64306 21.6433C2.26818 21.0182 3.11603 20.667 4.00008 20.667ZM4.00008 10.667C4.88414 10.667 5.73198 11.0182 6.3571 11.6433C6.98222 12.2684 7.33341 13.1163 7.33341 14.0003C7.33341 14.8844 6.98222 15.7322 6.3571 16.3573C5.73198 16.9825 4.88414 17.3337 4.00008 17.3337C3.11603 17.3337 2.26818 16.9825 1.64306 16.3573C1.01794 15.7322 0.666748 14.8844 0.666748 14.0003C0.666748 13.1163 1.01794 12.2684 1.64306 11.6433C2.26818 11.0182 3.11603 10.667 4.00008 10.667ZM4.00008 0.666992C4.88414 0.666992 5.73198 1.01818 6.3571 1.6433C6.98222 2.26842 7.33341 3.11627 7.33341 4.00033C7.33341 4.88438 6.98222 5.73223 6.3571 6.35735C5.73198 6.98247 4.88414 7.33366 4.00008 7.33366C3.11603 7.33366 2.26818 6.98247 1.64306 6.35735C1.01794 5.73223 0.666748 4.88438 0.666748 4.00033C0.666748 3.11627 1.01794 2.26842 1.64306 1.6433C2.26818 1.01818 3.11603 0.666992 4.00008 0.666992Z" fill="black"/>
</svg>
